<svg xmlns="http://www.w3.org/2000/svg" xmlns:xlink="http://www.w3.org/1999/xlink" width="1620" height="318"><defs><path id="b" d="M-364 625.036V428.047s104.571-147.048 395.743-147.048c290.516 0 458.918 169.244 678.633 169.244 190.628 0 305.767-110.424 432.344-143.348 126.576-32.924 112.851 24.045 112.851 24.045L1234.983 687z"/><path id="d" d="M-260.256 607.09V435.167s91.202-128.338 345.148-128.338c253.374 0 400.246 147.71 591.872 147.71 166.256 0 266.674-96.374 377.068-125.109 110.395-28.735 98.424 20.986 98.424 20.986L1134.3 661.171z"/><linearGradient id="a" x1="-364" x2="1256" y1="484" y2="484" gradientUnits="userSpaceOnUse"><stop offset="0" stop-color="#a044ff"/><stop offset="1" stop-color="#6a3093"/></linearGradient><linearGradient id="c" x1="-260.26" x2="1152.74" y1="484.17" y2="483.83" gradientUnits="userSpaceOnUse"><stop offset="0" stop-color="#a044ff"/><stop offset="1" stop-color="#6a3093"/></linearGradient></defs><g clip-path="url(#clip-9)" opacity=".57" transform="translate(364 -281)"><use fill="url(#a)" xlink:href="#b"/></g><g clip-path="url(#clip-9)" opacity=".57" transform="translate(364 -281)"><use fill="url(#c)" xlink:href="#d"/></g></svg>