<svg xmlns="http://www.w3.org/2000/svg" xmlns:xlink="http://www.w3.org/1999/xlink" width="322" height="372"><defs><path id="b" d="M-378 621.036v-196.99S-273.428 277 17.743 277c290.516 0 458.918 169.244 678.633 169.244 190.628 0 305.767-110.424 432.344-143.348 126.576-32.925 112.851 24.045 112.851 24.045L1220.983 683z"/><path id="d" d="M-274.256 603.09V431.167s91.202-128.338 345.148-128.338c253.374 0 400.246 147.71 591.872 147.71 166.256 0 266.674-96.375 377.068-125.109 110.395-28.736 98.424 20.986 98.424 20.986L1120.3 657.17z"/><linearGradient id="a" x1="-378" x2="1242" y1="480" y2="480" gradientUnits="userSpaceOnUse"><stop offset="0" stop-color="#a044ff"/><stop offset="1" stop-color="#6a3093"/></linearGradient><linearGradient id="c" x1="-274.26" x2="1138.74" y1="480.17" y2="479.83" gradientUnits="userSpaceOnUse"><stop offset="0" stop-color="#a044ff"/><stop offset="1" stop-color="#6a3093"/></linearGradient></defs><g clip-path="url(#clip-375)" opacity=".57" transform="translate(2 -277)"><use fill="url(#a)" xlink:href="#b"/></g><g clip-path="url(#clip-375)" opacity=".57" transform="translate(2 -277)"><use fill="url(#c)" xlink:href="#d"/></g></svg>