<svg xmlns="http://www.w3.org/2000/svg" xmlns:xlink="http://www.w3.org/1999/xlink" width="271" height="279"><defs><path id="a" d="M658 6081c30.928 0 56 25.072 56 56s-25.072 56-56 56-56-25.072-56-56 25.072-56 56-56z"/><path id="b" d="M658 6060c42.526 0 77 34.474 77 77s-34.474 77-77 77-77-34.474-77-77 34.474-77 77-77z"/><path id="c" d="M658.5 6017c66.55 0 120.5 53.95 120.5 120.5S725.05 6258 658.5 6258 538 6204.05 538 6137.5 591.95 6017 658.5 6017z"/><path id="e" d="M508 6602.749v-296.453s157.244-221.297 595.08-221.297c436.85 0 690.077 254.7 1020.464 254.7 286.647 0 459.782-166.18 650.116-215.73 190.334-49.548 169.695 36.187 169.695 36.187L2912.397 6696z"/><path id="g" d="M664 6575.743v-258.734s137.141-193.14 519-193.14c381 0 601.852 222.293 890 222.293 250 0 401-145.036 567-188.28s148 31.583 148 31.583l-27 467.664z"/><linearGradient id="d" x1="508" x2="2944" y1="6391" y2="6390" gradientUnits="userSpaceOnUse"><stop offset="0" stop-color="#a044ff"/><stop offset="1" stop-color="#6a3093"/></linearGradient><linearGradient id="f" x1="664" x2="2789" y1="6390.13" y2="6390.87" gradientUnits="userSpaceOnUse"><stop offset="0" stop-color="#a044ff"/><stop offset="1" stop-color="#6a3093"/></linearGradient><clipPath id="h"><use fill="#fff" xlink:href="#a"/></clipPath><clipPath id="i"><use fill="#fff" xlink:href="#b"/></clipPath><clipPath id="j"><use fill="#fff" xlink:href="#c"/></clipPath></defs><g clip-path="url(#clip-210)" opacity=".28" transform="translate(-508 -6030)"><use fill="url(#d)" xlink:href="#e"/></g><g clip-path="url(#clip-210)" opacity=".28" transform="translate(-508 -6030)"><use fill="url(#f)" xlink:href="#g"/></g><text fill="#fff" style="line-height:24px" dominant-baseline="text-before-edge" font-family="'MullerBold','MullerBold'" font-size="100" font-style="none" font-weight="400" transform="translate(134 80)"><tspan style="font-kerning:normal">?</tspan></text><use fill="#fff" fill-opacity="0" stroke="#fff" stroke-miterlimit="50" stroke-width="2" clip-path="url(&quot;#h&quot;)" xlink:href="#a" transform="translate(-508 -6030)"/><use fill="#fff" fill-opacity="0" stroke="#fff" stroke-miterlimit="50" stroke-width="2" clip-path="url(&quot;#i&quot;)" xlink:href="#b" transform="translate(-508 -6030)"/><use fill="#fff" fill-opacity="0" stroke="#fff" stroke-miterlimit="50" stroke-width="2" clip-path="url(&quot;#j&quot;)" xlink:href="#c" transform="translate(-508 -6030)"/></svg>