<svg xmlns="http://www.w3.org/2000/svg" xmlns:xlink="http://www.w3.org/1999/xlink" width="1110" height="219"><defs><path id="a" d="M540 5718c30.928 0 56 25.072 56 56s-25.072 56-56 56-56-25.072-56-56 25.072-56 56-56z"/><path id="b" d="M540 5697c42.526 0 77 34.474 77 77s-34.474 77-77 77-77-34.474-77-77 34.474-77 77-77z"/><path id="c" d="M540.5 5654c66.55 0 120.5 53.95 120.5 120.5S607.05 5895 540.5 5895 420 5841.05 420 5774.5 473.95 5654 540.5 5654z"/><path id="e" d="M869 6179.75v-296.454S1026.244 5662 1464.08 5662c436.85 0 690.077 254.699 1020.464 254.699 286.647 0 459.782-166.18 650.116-215.73 190.334-49.548 169.695 36.188 169.695 36.188l-30.958 535.842z"/><path id="g" d="M1025 6152.743v-258.734s137.141-193.14 519-193.14c381 0 601.852 222.293 890 222.293 250 0 401-145.036 567-188.28s148 31.583 148 31.583l-27 467.664z"/><linearGradient id="d" x1="869" x2="3305" y1="5968" y2="5967" gradientUnits="userSpaceOnUse"><stop offset="0" stop-color="#a044ff"/><stop offset="1" stop-color="#6a3093"/></linearGradient><linearGradient id="f" x1="1025" x2="3150" y1="5967.13" y2="5967.87" gradientUnits="userSpaceOnUse"><stop offset="0" stop-color="#a044ff"/><stop offset="1" stop-color="#6a3093"/></linearGradient><clipPath id="h"><use fill="#fff" xlink:href="#a"/></clipPath><clipPath id="i"><use fill="#fff" xlink:href="#b"/></clipPath><clipPath id="j"><use fill="#fff" xlink:href="#c"/></clipPath></defs><g clip-path="url(#clip-773)" opacity=".28" transform="translate(-420 -5667)"><use fill="url(#d)" xlink:href="#e"/></g><g clip-path="url(#clip-773)" opacity=".28" transform="translate(-420 -5667)"><use fill="url(#f)" xlink:href="#g"/></g><text fill="#fff" style="line-height:24px" dominant-baseline="text-before-edge" font-family="'MullerBold','MullerBold'" font-size="100" font-style="none" font-weight="400" transform="translate(104 80)"><tspan style="font-kerning:normal">?</tspan></text><use fill="#fff" fill-opacity="0" stroke="#fff" stroke-miterlimit="50" stroke-width="2" clip-path="url(&quot;#h&quot;)" xlink:href="#a" transform="translate(-420 -5667)"/><use fill="#fff" fill-opacity="0" stroke="#fff" stroke-miterlimit="50" stroke-width="2" clip-path="url(&quot;#i&quot;)" xlink:href="#b" transform="translate(-420 -5667)"/><use fill="#fff" fill-opacity="0" stroke="#fff" stroke-miterlimit="50" stroke-width="2" clip-path="url(&quot;#j&quot;)" xlink:href="#c" transform="translate(-420 -5667)"/></svg>