<svg xmlns="http://www.w3.org/2000/svg" xmlns:xlink="http://www.w3.org/1999/xlink" width="661" height="219" viewBox="0 0 661 219"><defs><path id="o2g9a" d="M869 6179.75v-296.454S1026.244 5662 1464.08 5662c436.85 0 690.077 254.699 1020.464 254.699 286.647 0 459.782-166.18 650.116-215.73 190.334-49.548 169.695 36.188 169.695 36.188l-30.958 535.842z"/><path id="o2g9c" d="M1025 6152.743v-258.734s137.141-193.14 519-193.14c381 0 601.852 222.293 890 222.293 250 0 401-145.036 567-188.28s148 31.583 148 31.583l-27 467.664z"/><linearGradient id="o2g9b" x1="869" x2="3305" y1="5968" y2="5967" gradientUnits="userSpaceOnUse"><stop offset="0" stop-color="#a044ff"/><stop offset="1" stop-color="#6a3093"/></linearGradient><linearGradient id="o2g9d" x1="1025" x2="3150" y1="5967.13" y2="5967.87" gradientUnits="userSpaceOnUse"><stop offset="0" stop-color="#a044ff"/><stop offset="1" stop-color="#6a3093"/></linearGradient></defs><g><g clip-path="url(#clip-773)" opacity=".28" transform="translate(-869 -5667)"><use fill="url(#o2g9b)" xlink:href="#o2g9a"/></g><g clip-path="url(#clip-773)" opacity=".28" transform="translate(-869 -5667)"><use fill="url(#o2g9d)" xlink:href="#o2g9c"/></g></g></svg>