<svg xmlns="http://www.w3.org/2000/svg" xmlns:xlink="http://www.w3.org/1999/xlink" width="242" height="165" viewBox="0 0 242 165"><defs><path id="lx1oa" d="M508 6602.749v-296.453s157.244-221.297 595.08-221.297c436.85 0 690.077 254.7 1020.464 254.7 286.647 0 459.782-166.18 650.116-215.73 190.334-49.548 169.695 36.187 169.695 36.187L2912.397 6696z"/><path id="lx1oc" d="M664 6575.743v-258.734s137.141-193.14 519-193.14c381 0 601.852 222.293 890 222.293 250 0 401-145.036 567-188.28s148 31.583 148 31.583l-27 467.664z"/><linearGradient id="lx1ob" x1="508" x2="2944" y1="6391" y2="6390" gradientUnits="userSpaceOnUse"><stop offset="0" stop-color="#a044ff"/><stop offset="1" stop-color="#6a3093"/></linearGradient><linearGradient id="lx1od" x1="664" x2="2789" y1="6390.13" y2="6390.87" gradientUnits="userSpaceOnUse"><stop offset="0" stop-color="#a044ff"/><stop offset="1" stop-color="#6a3093"/></linearGradient></defs><g><g clip-path="url(#clip-210)" opacity=".28" transform="translate(-508 -6144)"><use fill="url(#lx1ob)" xlink:href="#lx1oa"/></g><g clip-path="url(#clip-210)" opacity=".28" transform="translate(-508 -6144)"><use fill="url(#lx1od)" xlink:href="#lx1oc"/></g></g></svg>