<svg xmlns="http://www.w3.org/2000/svg" xmlns:xlink="http://www.w3.org/1999/xlink" width="154" height="452" viewBox="0 0 154 452"><defs><path id="t38xa" d="M213 1605s54 46.066 54 100c0 49.934-69 79.066-107 99-38 19.934-53 28.404-53 72 0 53.934 73 99.066 82 132 9 32.933-4 51-4 51"/><path id="t38xc" d="M260.91 1707.22l4.143 9.844 4.693-9.594s-2.146 2.887-4.493 2.526c-2.348-.361-4.343-2.776-4.343-2.776z"/><path id="t38xd" d="M124.136 1818.72l-6.42 8.535 10.652-.775s-3.574-.4-4.444-2.61c-.87-2.21.212-5.15.212-5.15z"/><path id="t38xe" d="M184.145 2045.758l3.423 10.117 5.371-9.231s-2.347 2.725-4.663 2.195c-2.315-.529-4.131-3.08-4.131-3.08z"/><clipPath id="t38xb"><use fill="#fff" xlink:href="#t38xa"/></clipPath></defs><g><g transform="translate(-116 -1604)"><use fill="#fff" fill-opacity="0" stroke="#d695b3" stroke-dasharray="4 2" stroke-miterlimit="50" stroke-width="2" clip-path="url(&quot;#t38xb&quot;)" xlink:href="#t38xa"/></g><g transform="translate(-116 -1604)"><use fill="#d695b3" xlink:href="#t38xc"/></g><g transform="translate(-116 -1604)"><use fill="#d695b3" xlink:href="#t38xd"/></g><g transform="translate(-116 -1604)"><use fill="#d695b3" xlink:href="#t38xe"/></g></g></svg>