<svg xmlns="http://www.w3.org/2000/svg" xmlns:xlink="http://www.w3.org/1999/xlink" width="315" height="270" viewBox="0 0 315 270"><defs><path id="ktxfa" d="M653 1115s61 9 112 43c46.898 31.265 61.379 52.852 59 88-3.154 46.6-91.239 65.025-181 15-107.634-59.988-175.361-7.21-170 15 7 29 15 54.823 90 66 74.87 11.156 83 71 83 71"/><path id="ktxfc" d="M803 1195.25l10 3.75-3.75-10s.625 3.541-1.25 5c-1.875 1.458-5 1.25-5 1.25z"/><path id="ktxfd" d="M505.594 1235.913l-7.314 7.783 10.673.393s-3.509-.788-4.132-3.08c-.623-2.292.773-5.096.773-5.096z"/><path id="ktxfe" d="M630.197 1386.249l9.247 5.343-2.055-10.48s.035 3.596-2.055 4.726c-2.089 1.13-5.137.41-5.137.41z"/><clipPath id="ktxfb"><use fill="#fff" xlink:href="#ktxfa"/></clipPath></defs><g><g opacity=".72" transform="translate(-498 -1122)"><use fill="#fff" fill-opacity="0" stroke="#d695b3" stroke-dasharray="4 2" stroke-miterlimit="50" stroke-width="2" clip-path="url(&quot;#ktxfb&quot;)" xlink:href="#ktxfa"/></g><g transform="translate(-498 -1122)"><use fill="#d695b3" xlink:href="#ktxfc"/></g><g transform="translate(-498 -1122)"><use fill="#d695b3" xlink:href="#ktxfd"/></g><g transform="translate(-498 -1122)"><use fill="#d695b3" xlink:href="#ktxfe"/></g></g></svg>