<svg xmlns="http://www.w3.org/2000/svg" xmlns:xlink="http://www.w3.org/1999/xlink" width="485" height="278" viewBox="0 0 485 278"><defs><path id="i88sa" d="M332 1160s70.776 6 142 24 129 48 129 48 49.24 30.566 9 63c-29.776 24-109.224 36-184 18-90.185-21.71-162.724-31-194-32-31.276-1-78.724 6.5-95 19-16.708 12.832-66.82 78.555 58 98 41.724 6.5 87.199 5.835 172 19 43.122 6.694 62 23 62 23"/><path id="i88sc" d="M598.224 1234.935l10.425 2.317-5.11-9.378s1.114 3.42-.54 5.125c-1.652 1.706-4.775 1.936-4.775 1.936z"/><path id="i88sd" d="M150.594 1288.913l-7.314 7.783 10.673.393s-3.509-.789-4.132-3.08c-.623-2.293.773-5.096.773-5.096z"/><path id="i88se" d="M411.229 1432.914l9.92 3.957-3.542-10.076s.552 3.554-1.353 4.973c-1.905 1.42-5.025 1.146-5.025 1.146z"/><clipPath id="i88sb"><use fill="#fff" xlink:href="#i88sa"/></clipPath></defs><g><g transform="translate(-142 -1159)"><use fill="#fff" fill-opacity="0" stroke="#d695b3" stroke-dasharray="4 2" stroke-miterlimit="50" stroke-width="2" clip-path="url(&quot;#i88sb&quot;)" xlink:href="#i88sa"/></g><g transform="translate(-142 -1159)"><use fill="#d695b3" xlink:href="#i88sc"/></g><g transform="translate(-142 -1159)"><use fill="#d695b3" xlink:href="#i88sd"/></g><g transform="translate(-142 -1159)"><use fill="#d695b3" xlink:href="#i88se"/></g></g></svg>