<svg xmlns="http://www.w3.org/2000/svg" xmlns:xlink="http://www.w3.org/1999/xlink" width="241" height="219" viewBox="0 0 241 219"><defs><path id="jw9ba" d="M540 5718c30.928 0 56 25.072 56 56s-25.072 56-56 56-56-25.072-56-56 25.072-56 56-56z"/><path id="jw9bb" d="M540 5697c42.526 0 77 34.474 77 77s-34.474 77-77 77-77-34.474-77-77 34.474-77 77-77z"/><path id="jw9bc" d="M540.5 5654c66.55 0 120.5 53.95 120.5 120.5S607.05 5895 540.5 5895 420 5841.05 420 5774.5 473.95 5654 540.5 5654z"/><clipPath id="jw9bd"><use fill="#fff" xlink:href="#jw9ba"/></clipPath><clipPath id="jw9be"><use fill="#fff" xlink:href="#jw9bb"/></clipPath><clipPath id="jw9bf"><use fill="#fff" xlink:href="#jw9bc"/></clipPath></defs><g><g transform="translate(-420 -5667)"><g><text fill="#fff" style="line-height:24px" dominant-baseline="text-before-edge" font-family="'MullerBold','MullerBold'" font-size="100" font-style="none" font-weight="400" transform="translate(524 5747)"><tspan style="font-kerning:normal">?</tspan></text></g></g><g transform="translate(-420 -5667)"><use fill="#fff" fill-opacity="0" stroke="#fff" stroke-miterlimit="50" stroke-width="2" clip-path="url(&quot;#jw9bd&quot;)" xlink:href="#jw9ba"/></g><g transform="translate(-420 -5667)"><use fill="#fff" fill-opacity="0" stroke="#fff" stroke-miterlimit="50" stroke-width="2" clip-path="url(&quot;#jw9be&quot;)" xlink:href="#jw9bb"/></g><g transform="translate(-420 -5667)"><use fill="#fff" fill-opacity="0" stroke="#fff" stroke-miterlimit="50" stroke-width="2" clip-path="url(&quot;#jw9bf&quot;)" xlink:href="#jw9bc"/></g></g></svg>