<svg xmlns="http://www.w3.org/2000/svg" xmlns:xlink="http://www.w3.org/1999/xlink" width="241" height="219"><defs><path id="a" d="M540 5718c30.928 0 56 25.072 56 56s-25.072 56-56 56-56-25.072-56-56 25.072-56 56-56z"/><path id="b" d="M540 5697c42.526 0 77 34.474 77 77s-34.474 77-77 77-77-34.474-77-77 34.474-77 77-77z"/><path id="c" d="M540.5 5654c66.55 0 120.5 53.95 120.5 120.5S607.05 5895 540.5 5895 420 5841.05 420 5774.5 473.95 5654 540.5 5654z"/><clipPath id="d"><use fill="#fff" xlink:href="#a"/></clipPath><clipPath id="e"><use fill="#fff" xlink:href="#b"/></clipPath><clipPath id="f"><use fill="#fff" xlink:href="#c"/></clipPath></defs><text fill="#fff" style="line-height:24px" dominant-baseline="text-before-edge" font-family="'MullerBold','MullerBold'" font-size="100" font-style="none" font-weight="400" transform="translate(104 80)"><tspan style="font-kerning:normal">?</tspan></text><use fill="#fff" fill-opacity="0" stroke="#fff" stroke-miterlimit="50" stroke-width="2" clip-path="url(&quot;#d&quot;)" xlink:href="#a" transform="translate(-420 -5667)"/><use fill="#fff" fill-opacity="0" stroke="#fff" stroke-miterlimit="50" stroke-width="2" clip-path="url(&quot;#e&quot;)" xlink:href="#b" transform="translate(-420 -5667)"/><use fill="#fff" fill-opacity="0" stroke="#fff" stroke-miterlimit="50" stroke-width="2" clip-path="url(&quot;#f&quot;)" xlink:href="#c" transform="translate(-420 -5667)"/></svg>